<svg width="64.566162" height="49.129639" viewBox="0 0 64.5662 49.1296" fill="none" xmlns="http://www.w3.org/2000/svg" xmlns:xlink="http://www.w3.org/1999/xlink">
	<desc>
			Created with Pixso.
	</desc>
	<defs/>
	<path id="Ellipse 2533" d="" fill="#D9D9D9" fill-opacity="0" fill-rule="nonzero"/>
	<path id="Ellipse 2533" d="M19.0137 35.1401Q23.2744 43.5957 32.2207 46.7336Q41.1487 49.8765 49.7734 45.9294Q58.3843 42.0007 61.8591 33.1753Q65.3367 24.3723 61.7178 15.605Q58.1167 6.85181 49.4287 3.04663Q40.7632 -0.760742 31.8657 2.52466Q22.9878 5.79102 18.8467 14.3284L17.9473 13.8921Q22.2642 4.99194 31.519 1.58667Q40.7959 -1.83862 49.8298 2.13062Q58.8879 6.0979 62.6423 15.2234Q66.415 24.364 62.7896 33.5415Q59.167 42.7429 50.1895 46.8389Q41.1978 50.9539 31.8896 47.6772Q22.563 44.406 18.1206 35.5901L19.0137 35.1401Z" fill="#171614" fill-opacity="1.000000" fill-rule="evenodd"/>
	<path id="Arrow 3" d="M39.293 24.5652L36.8179 22.0903C36.6201 21.8923 36.6201 21.5813 36.8179 21.3833C37.0161 21.1853 37.3271 21.1853 37.5251 21.3833L40.3535 24.2117C40.5515 24.4097 40.5515 24.7207 40.3535 24.9187L37.5251 27.7471C37.3271 27.9451 37.0161 27.9451 36.8179 27.7471C36.6201 27.5491 36.6201 27.238 36.8179 27.04L39.293 24.5652Z" fill="#D9D9D9" fill-opacity="0" fill-rule="nonzero"/>
	<path id="Arrow 3" d="M0 24.0652L40 24.0652L40 25.0652L0 25.0652L0 24.0652ZM39.293 24.5652L36.8179 22.0903C36.6201 21.8923 36.6201 21.5813 36.8179 21.3833C37.0161 21.1853 37.3271 21.1853 37.5251 21.3833L40.3535 24.2117C40.5515 24.4097 40.5515 24.7207 40.3535 24.9187L37.5251 27.7471C37.3271 27.9451 37.0161 27.9451 36.8179 27.7471C36.6201 27.5491 36.6201 27.238 36.8179 27.04L39.293 24.5652Z" fill="#171614" fill-opacity="1.000000" fill-rule="evenodd"/>
</svg>
