<svg width="64.000000" height="48.000000" viewBox="0 0 64 48" fill="none" xmlns="http://www.w3.org/2000/svg" xmlns:xlink="http://www.w3.org/1999/xlink">
	<desc>
			Created with Pixso.
	</desc>
	<defs/>
	<circle id="Ellipse 2548" cx="40.000000" cy="24.000000" r="24.000000" fill="#171614" fill-opacity="1.000000"/>
	<path id="Arrow 4" d="M39.293 24L36.8179 21.5251C36.6201 21.3271 36.6201 21.0161 36.8179 20.8181C37.0161 20.6201 37.3271 20.6201 37.5251 20.8181L40.3535 23.6465C40.5515 23.8445 40.5515 24.1555 40.3535 24.3535L37.5251 27.1819C37.3271 27.3799 37.0161 27.3799 36.8179 27.1819C36.6201 26.9839 36.6201 26.6729 36.8179 26.4749L39.293 24Z" fill="#D9D9D9" fill-opacity="0" fill-rule="nonzero"/>
	<path id="Arrow 4" d="M0 23.5L40 23.5L40 24.5L0 24.5L0 23.5ZM39.293 24L36.8179 21.5251C36.6201 21.3271 36.6201 21.0161 36.8179 20.8181C37.0161 20.6201 37.3271 20.6201 37.5251 20.8181L40.3535 23.6465C40.5515 23.8445 40.5515 24.1555 40.3535 24.3535L37.5251 27.1819C37.3271 27.3799 37.0161 27.3799 36.8179 27.1819C36.6201 26.9839 36.6201 26.6729 36.8179 26.4749L39.293 24Z" fill="#171614" fill-opacity="1.000000" fill-rule="evenodd"/>
	<path id="Arrow 3" d="M39.293 24L36.8179 21.5251C36.6201 21.3271 36.6201 21.0161 36.8179 20.8181C37.0161 20.6201 37.3271 20.6201 37.5251 20.8181L40.3535 23.6465C40.5515 23.8445 40.5515 24.1555 40.3535 24.3535L37.5251 27.1819C37.3271 27.3799 37.0161 27.3799 36.8179 27.1819C36.6201 26.9839 36.6201 26.6729 36.8179 26.4749L39.293 24Z" fill="#D9D9D9" fill-opacity="0" fill-rule="nonzero"/>
	<path id="Arrow 3" d="M16 23.5L40 23.5L40 24.5L16 24.5L16 23.5ZM39.293 24L36.8179 21.5251C36.6201 21.3271 36.6201 21.0161 36.8179 20.8181C37.0161 20.6201 37.3271 20.6201 37.5251 20.8181L40.3535 23.6465C40.5515 23.8445 40.5515 24.1555 40.3535 24.3535L37.5251 27.1819C37.3271 27.3799 37.0161 27.3799 36.8179 27.1819C36.6201 26.9839 36.6201 26.6729 36.8179 26.4749L39.293 24Z" fill="#F8F4F1" fill-opacity="1.000000" fill-rule="evenodd"/>
</svg>
