<svg width="128.630859" height="97.256592" viewBox="0 0 128.631 97.2566" fill="none" xmlns="http://www.w3.org/2000/svg" xmlns:xlink="http://www.w3.org/1999/xlink">
	<desc>
			Created with Pixso.
	</desc>
	<defs/>
	<path id="Ellipse 2533" d="" fill="#D9D9D9" fill-opacity="0" fill-rule="nonzero"/>
	<path id="Ellipse 2533" d="M37.5811 70.0037Q46.1934 87.0955 64.2761 93.4375Q82.322 99.7903 99.7546 91.8123Q117.16 83.8708 124.183 66.0322Q131.212 48.239 123.898 30.5176Q116.619 12.8252 99.0581 5.13354Q81.543 -2.56201 63.5581 4.07886Q45.6138 10.6812 37.2437 27.9373L36.344 27.5007Q44.8899 9.88184 63.2117 3.14087Q81.5752 -3.63989 99.4592 4.21777Q117.39 12.071 124.822 30.136Q132.291 48.231 125.114 66.3984Q117.943 84.613 100.171 92.7214Q82.3708 100.868 63.9453 94.3811Q45.4819 87.9053 36.688 70.4536L37.5811 70.0037Z" fill="#F8F4F1" fill-opacity="1.000000" fill-rule="evenodd"/>
	<path id="Arrow 3" d="M0 48.1289L80 48.1289L80 49.1289L0 49.1289L0 48.1289ZM79.293 48.6289L76.8181 46.1541C76.6201 45.9561 76.6201 45.645 76.8181 45.447C77.0161 45.249 77.3271 45.249 77.5251 45.447L80.3535 48.2754C80.5515 48.4734 80.5515 48.7844 80.3535 48.9824L77.5251 51.8108C77.3271 52.0088 77.0161 52.0088 76.8181 51.8108C76.6201 51.6128 76.6201 51.3018 76.8181 51.1038L79.293 48.6289Z" fill="#F8F4F1" fill-opacity="1.000000" fill-rule="evenodd"/>
</svg>
