<svg width="128.000000" height="96.000000" viewBox="0 0 128 96" fill="none" xmlns="http://www.w3.org/2000/svg" xmlns:xlink="http://www.w3.org/1999/xlink">
	<desc>
			Created with Pixso.
	</desc>
	<defs/>
	<circle id="Ellipse 2548" cx="80.000000" cy="48.000000" r="48.000000" fill="#F8F4F1" fill-opacity="1.000000"/>
	<path id="Arrow 4" d="M0 47.5L80 47.5L80 48.5L0 48.5L0 47.5ZM79.293 48L76.8181 45.5251C76.6201 45.3271 76.6201 45.0161 76.8181 44.8181C77.0161 44.6201 77.3271 44.6201 77.5251 44.8181L80.3535 47.6465C80.5515 47.8445 80.5515 48.1555 80.3535 48.3535L77.5251 51.1819C77.3271 51.3799 77.0161 51.3799 76.8181 51.1819C76.6201 50.9839 76.6201 50.6729 76.8181 50.4749L79.293 48Z" fill="#F8F4F1" fill-opacity="1.000000" fill-rule="evenodd"/>
	<path id="Arrow 3" d="M79.293 48L76.8181 45.5251C76.6201 45.3271 76.6201 45.0161 76.8181 44.8181C77.0161 44.6201 77.3271 44.6201 77.5251 44.8181L80.3535 47.6465C80.5515 47.8445 80.5515 48.1555 80.3535 48.3535L77.5251 51.1819C77.3271 51.3799 77.0161 51.3799 76.8181 51.1819C76.6201 50.9839 76.6201 50.6729 76.8181 50.4749L79.293 48Z" fill="#D9D9D9" fill-opacity="0" fill-rule="nonzero"/>
	<path id="Arrow 3" d="M32 47.5L80 47.5L80 48.5L32 48.5L32 47.5ZM79.293 48L76.8181 45.5251C76.6201 45.3271 76.6201 45.0161 76.8181 44.8181C77.0161 44.6201 77.3271 44.6201 77.5251 44.8181L80.3535 47.6465C80.5515 47.8445 80.5515 48.1555 80.3535 48.3535L77.5251 51.1819C77.3271 51.3799 77.0161 51.3799 76.8181 51.1819C76.6201 50.9839 76.6201 50.6729 76.8181 50.4749L79.293 48Z" fill="#171614" fill-opacity="1.000000" fill-rule="evenodd"/>
</svg>
