<svg width="60.000000" height="60.000000" viewBox="0 0 60 60" fill="none" xmlns="http://www.w3.org/2000/svg" xmlns:xlink="http://www.w3.org/1999/xlink">
    <desc>
        Created with Pixso.
    </desc>
    <defs/>
    <circle id="button" cx="30" cy="30" r="29.5" transform="rotate(-179.999985)" fill="#6E6E6E" fill-opacity="0"/>
    <path id="Arrow 3" d="M38 30.5L22 30.5L22 29.5L38 29.5L38 30.5ZM37.98 29.52L38 29.5C38.28 29.5 38.5 29.72 38.5 30C38.5 30.28 38.28 30.5 38 30.5L37.98 30.48L37.98 29.52ZM22.7071 30L25.182 32.4749C25.3799 32.6729 25.3799 32.9839 25.182 33.1819C24.984 33.3799 24.6729 33.3799 24.4749 33.1819L21.6464 30.3535C21.4485 30.1555 21.4485 29.8445 21.6464 29.6465L24.4749 26.8181C24.6729 26.6201 24.984 26.6201 25.182 26.8181C25.3799 27.0161 25.3799 27.3271 25.182 27.5251L22.7071 30Z" fill="#B9BF05" fill-opacity="1.000000" fill-rule="evenodd"/>
    <circle id="button" cx="30" cy="30" r="29.5" transform="rotate(-179.999985)" stroke="#B9BF05" stroke-opacity="1.000000" stroke-width="1.000000"/>
</svg>
