<svg width="47.313721" height="47.313721" viewBox="0 0 47.3137 47.3137" fill="none" xmlns="http://www.w3.org/2000/svg" xmlns:xlink="http://www.w3.org/1999/xlink">
	<desc>
			Created with Pixso.
	</desc>
	<defs/>
	<rect id="button" rx="11.828426" width="46.313705" height="46.313709" transform="translate(0.500000 0.500000)" fill="#6E6E6E" fill-opacity="0"/>
	<path id="Arrow 3" d="M17.6465 28.9599L28.9601 17.6462L29.6673 18.3533L18.3535 29.6671L17.6465 28.9599ZM18.3535 29.6387L18.3535 29.6671C18.1556 29.865 17.8444 29.865 17.6465 29.6671C17.4485 29.4691 17.4485 29.1579 17.6465 28.9599L17.6747 28.9599L18.3535 29.6387ZM28.8137 18.4998L25.3137 18.4998C25.0337 18.4998 24.8137 18.2798 24.8137 17.9998C24.8137 17.7198 25.0337 17.4998 25.3137 17.4998L29.3137 17.4998C29.5937 17.4998 29.8137 17.7198 29.8137 17.9998L29.8137 21.9998C29.8137 22.2798 29.5937 22.4998 29.3137 22.4998C29.0337 22.4998 28.8137 22.2798 28.8137 21.9998L28.8137 18.4998Z" fill="#F9F8F4" fill-opacity="1.000000" fill-rule="evenodd"/>
	<rect id="button" rx="11.828426" width="46.313705" height="46.313709" transform="translate(0.500000 0.500000)" stroke="#F9F8F4" stroke-opacity="1.000000" stroke-width="1.000000"/>
</svg>
