<svg width="80" height="80" viewBox="0 0 80 80" fill="none" xmlns="http://www.w3.org/2000/svg">
<rect width="80" height="80" rx="24" fill="#2F2F2F"/>
<path fill-rule="evenodd" clip-rule="evenodd" d="M60 39.9998C60 41.3148 58.8807 42.3807 57.5 42.3807L28.5355 42.3807L39.2678 52.6019C40.2441 53.5317 40.2441 55.0393 39.2678 55.9691C38.2915 56.8989 36.7085 56.8989 35.7322 55.9691L20.7322 41.6834C19.7559 40.7536 19.7559 39.246 20.7322 38.3162L35.7322 24.0305C36.7085 23.1007 38.2915 23.1007 39.2678 24.0305C40.2441 24.9603 40.2441 26.4678 39.2678 27.3977L28.5355 37.6188L57.5 37.6188C58.8807 37.6188 60 38.6848 60 39.9998Z" fill="#1F1E1D"/>
</svg>
