<svg width="139.484863" height="38.039795" viewBox="0 0 139.485 38.0398" fill="none" xmlns="http://www.w3.org/2000/svg" xmlns:xlink="http://www.w3.org/1999/xlink">
	<desc>
			Created with Pixso.
	</desc>
	<defs>
		<linearGradient id="paint_linear_1_1038_0" x1="11.672348" y1="31.311310" x2="136.367767" y2="11.662262" gradientUnits="userSpaceOnUse">
			<stop stop-color="#9A7932"/>
			<stop offset="0.271667" stop-color="#E3DA95"/>
			<stop offset="0.546667" stop-color="#F3F2BC"/>
			<stop offset="1.000000" stop-color="#997832"/>
		</linearGradient>
	</defs>
	<path id="logo" d="M70.7688 5.19995C69.3286 5.19995 68.1687 4.04004 68.1687 2.6001C68.1687 1.15991 69.3286 0 70.7688 0C72.2087 0 73.3687 1.15991 73.3687 2.6001C73.3687 4.04004 72.2087 5.19995 70.7688 5.19995ZM34.9751 0.240234L38.7749 0.240234L38.7749 29.9602L34.9751 29.9602L34.9751 0.240234ZM0 16.04C0 6.04004 7.52002 1.52002 15.76 1.47998C24.04 1.52002 31.5601 6.04004 31.5601 16.04C31.5601 26.24 24.04 30.5601 15.76 30.6001C7.52002 30.5601 0 26.24 0 16.04ZM79.0071 10.6001L75.5671 10.6001L75.5671 9.95996L79.0071 9.95996L79.0071 2.08008L82.8472 2.08008L82.8472 9.95996L92.1672 9.95996L92.1672 10.6001L82.8472 10.6001L82.8472 24.1602C82.8472 28.52 84.8071 29.96 87.207 29.96C90.7671 29.96 93.3672 27.1602 94.8872 21.6802L95.5271 21.8801C94.4072 25.9202 92.0872 30.6001 87.207 30.6001C79.0872 30.6001 79.0872 25 79.0471 19.1602L79.0071 10.6001ZM15.76 2.11987C9.80005 2.11987 4 5.63989 4 16.04C4 26.48 9.80005 30 15.76 30C21.76 30 27.5601 26.48 27.5601 16.04C27.5601 5.63989 21.76 2.11987 15.76 2.11987ZM47.1475 29.1597C44.1475 27.7598 42.1875 24.9197 42.1875 19.5598C42.1875 12.8799 45.9075 9.27979 51.7075 9.27979C58.2275 9.27979 59.9075 14.7197 60.7876 20.0798L60.7876 9.95972L64.5874 9.95972L64.5874 27.7598C64.5874 35.3599 61.1475 38.0398 54.1074 38.0398C47.9875 38.0398 45.1475 35.2798 43.5476 31.4797L47.1475 29.1597ZM126.605 30.5598C123.365 30.5598 118.125 30.0398 118.125 22.6799C118.125 19.6399 119.765 16.96 123.325 16L119.525 13.9199C121.085 11.24 123.325 9.3999 130.325 9.3999C135.405 9.3999 139.485 10.48 139.485 17.3999L139.485 29.96L135.725 29.96L135.725 19.9199C134.845 25.2798 133.205 30.5598 126.605 30.5598ZM113.488 17.9199L110.688 18.3198C113.568 19.3198 115.088 21.2 115.128 24.3999C115.128 24.4248 115.128 24.4497 115.128 24.4744C115.128 29.1348 111.378 30.52 105.768 30.52C99.448 30.52 96.5281 28.4399 96.5281 23.5601L100.368 23C100.368 28.1599 101.288 29.9199 105.808 29.9199C112.128 29.9199 112.768 28 112.768 25.72C112.768 22.5999 110.208 21.5999 105.048 20.76C99.8882 19.9199 97.2881 18.5999 97.2881 14.52C97.2881 11.4399 99.8081 9.43994 105.048 9.43994C111.088 9.43994 113.488 12.8799 113.488 17.9199ZM51.6675 9.87988C47.3474 9.87988 46.1074 12.9197 46.1074 19.5598C46.1074 27.9998 50.1875 29.7998 54.0674 29.7998C57.4275 29.7998 59.7075 28.9197 60.7876 28.3599L60.7876 28.3198C60.7476 24.3599 60.5076 20.6797 59.3474 16.6797C57.8274 11.1997 55.2275 9.87988 51.6675 9.87988ZM124.005 15.7998C124.365 15.6799 125.525 15.5598 126.565 15.5598L135.685 15.5598C135.685 11.52 135.365 9.91992 130.325 9.91992C125.965 9.91992 124.365 12.5598 124.005 15.7998ZM72.5686 29.96L68.7688 29.96L68.7688 9.95996L72.5686 9.95996L72.5686 29.96ZM106.168 17.28C108.168 17.5999 108.888 17.8398 109.888 18.0798C109.888 13.24 109.808 10 105.008 10C100.608 10 99.1282 11.4399 99.1282 13.76C99.1282 15.8799 101.568 16.52 106.168 17.28ZM126.565 16.24C124.165 16.24 122.045 18.0798 122.045 23.0798C122.045 28.3198 124.165 29.96 126.565 29.96C130.125 29.96 132.885 28.52 134.365 23.0398C134.965 20.8398 135.445 18.48 135.605 16.24L126.565 16.24ZM54.0674 30.3999C51.8274 30.3999 49.7075 30.1597 47.9075 29.5198C48.1875 32.6797 49.9875 37.4797 54.1074 37.4797C59.2676 37.4797 60.7476 34.9998 60.7476 29.0398C59.6675 29.5598 57.3875 30.3999 54.0674 30.3999Z" clip-rule="evenodd" fill="url(#paint_linear_1_1038_0)" fill-opacity="1.000000" fill-rule="evenodd"/>
</svg>
